<svg xmlns="http://www.w3.org/2000/svg" xmlns:xlink="http://www.w3.org/1999/xlink" width="2001" height="1106" viewBox="0 0 2001 1106"><defs><style>.a{fill:#4b42ad;}.b{clip-path:url(#a);}.c{opacity:0.188;}</style><clipPath id="a"><rect class="a" width="2001" height="1106" transform="translate(-9917 -18217)"/></clipPath></defs><g transform="translate(0 -6138)"><path class="a" d="M0,0H2001V1106H0Z" transform="translate(0 6138)"/><g class="b" transform="translate(9917 24355)"><g class="c" transform="translate(-10252.774 -18999.775)"><path d="M576.962,306.541c.112,0,.227-.01.339-.01s.227.007.339.007a91.512,91.512,0,1,0,0-183.025c-.129,0-.258.007-.386.01s-.258-.01-.39-.01a91.514,91.514,0,0,0,.1,183.028Z" transform="translate(758.498 -123.513)"/><path d="M629.842,364.432a91.4,91.4,0,0,0,39.219-75.109h0a91.513,91.513,0,0,0-91.514-91.511c-.108,0-.214.007-.322.007s-.214-.007-.322-.007a91.508,91.508,0,0,0-91.463,91.562h0a91.391,91.391,0,0,0,39.26,75.085,68.239,68.239,0,0,1,29.2,55.974h0a68.233,68.233,0,0,1-29.143,56.008,91.4,91.4,0,0,0-39.182,75.125h0a91.513,91.513,0,0,0,91.562,91.467c.071,0,.139-.007.207-.007s.136.007.2.007a91.513,91.513,0,0,0,91.514-91.514h0a91.392,91.392,0,0,0-39.219-75.105,68.24,68.24,0,0,1-29.173-55.991h0A68.235,68.235,0,0,1,629.842,364.432Z" transform="translate(758.591 54.086)"/><path d="M662.112,320.022c.109.037.22.064.329.1s.21.078.319.112a91.513,91.513,0,1,0,56.56-174.068c-.125-.041-.251-.071-.373-.112s-.244-.088-.366-.129a91.514,91.514,0,1,0-56.469,174.1Z" transform="translate(1029.579 -80.674)"/><path d="M751.548,391.422a91.4,91.4,0,0,0,60.513-59.31h0A91.518,91.518,0,0,0,753.3,216.8c-.1-.034-.207-.058-.312-.091s-.2-.075-.3-.108a91.516,91.516,0,0,0-115.283,58.818h0a91.394,91.394,0,0,0,14.137,83.54A68.249,68.249,0,0,1,662.02,421.22h0a68.239,68.239,0,0,1-45.026,44.257,91.4,91.4,0,0,0-60.48,59.344h0A91.517,91.517,0,0,0,615.333,640.1c.065.02.132.037.2.058s.125.047.19.068a91.513,91.513,0,0,0,115.314-58.754h0a91.389,91.389,0,0,0-14.094-83.55A68.252,68.252,0,0,1,706.5,435.659h0A68.246,68.246,0,0,1,751.548,391.422Z" transform="translate(917.754 88.26)"/><path d="M738.909,359.126c.091.064.186.125.281.193s.176.139.268.207A91.515,91.515,0,1,0,847.039,211.451c-.105-.075-.214-.142-.319-.22s-.2-.159-.309-.234a91.514,91.514,0,1,0-107.5,148.129Z" transform="translate(1274.178 43.871)"/><path d="M856.239,437.042a91.4,91.4,0,0,0,75.878-37.707h0A91.516,91.516,0,0,0,911.87,271.508c-.088-.064-.18-.119-.268-.183s-.166-.132-.254-.2a91.51,91.51,0,0,0-127.814,20.315h0a91.394,91.394,0,0,0-12.375,83.822,68.237,68.237,0,0,1-9.276,62.449h0a68.238,68.238,0,0,1-56.5,28.18,91.405,91.405,0,0,0-75.858,37.748h0a91.516,91.516,0,0,0,20.311,127.817l.173.119c.054.037.105.081.163.122A91.508,91.508,0,0,0,778,611.452h0a91.387,91.387,0,0,0,12.415-83.815,68.245,68.245,0,0,1,9.31-62.446h0A68.254,68.254,0,0,1,856.239,437.042Z" transform="translate(1061.286 187.606)"/><path d="M799.869,420.06c.068.092.143.18.21.271s.125.187.19.278A91.514,91.514,0,1,0,948.343,313.028c-.078-.105-.159-.2-.237-.309s-.142-.213-.22-.319A91.514,91.514,0,0,0,799.869,420.06Z" transform="translate(1468.31 237.891)"/><path d="M933.61,496.866a91.391,91.391,0,0,0,83.815-12.415h0a91.509,91.509,0,0,0,20.247-127.824c-.064-.088-.132-.169-.2-.258s-.119-.18-.183-.264a91.514,91.514,0,0,0-127.838-20.179h0a91.393,91.393,0,0,0-37.666,75.9,68.252,68.252,0,0,1-28.123,56.53h0a68.245,68.245,0,0,1-62.439,9.34,91.405,91.405,0,0,0-83.808,12.459h0A91.517,91.517,0,0,0,677.24,617.988c.041.054.085.109.125.166s.075.112.115.166a91.516,91.516,0,0,0,127.828,20.247h0a91.394,91.394,0,0,0,37.707-75.878,68.255,68.255,0,0,1,28.15-56.513h0A68.245,68.245,0,0,1,933.61,496.866Z" transform="translate(1175.191 342.356)"/><path d="M839.03,496.862c.034.109.078.214.112.322s.064.217.1.325a91.513,91.513,0,1,0,174.068-56.56c-.037-.122-.088-.244-.129-.366s-.071-.248-.108-.373A91.514,91.514,0,0,0,839.03,496.862Z" transform="translate(1592.975 482.393)"/><path d="M976.092,565.042a91.39,91.39,0,0,0,83.551,14.094h0A91.513,91.513,0,0,0,1118.4,463.822c-.034-.1-.074-.2-.108-.305s-.058-.207-.092-.308a91.511,91.511,0,0,0-115.344-58.693h0a91.394,91.394,0,0,0-59.276,60.54,68.247,68.247,0,0,1-44.213,45.071h0a68.238,68.238,0,0,1-62.273-10.412,91.4,91.4,0,0,0-83.557-14.049h0A91.514,91.514,0,0,0,694.841,601.01c.02.068.048.132.068.2s.037.132.058.2A91.518,91.518,0,0,0,810.28,660.16h0a91.407,91.407,0,0,0,59.31-60.513A68.246,68.246,0,0,1,913.826,554.6h0A68.251,68.251,0,0,1,976.092,565.042Z" transform="translate(1248.318 537.362)"/><path d="M852.514,581.974c0,.115.01.227.01.342s-.01.227-.01.339a91.514,91.514,0,1,0,183.028,0c0-.129-.01-.258-.01-.39s.01-.258.01-.386a91.514,91.514,0,0,0-183.028.095Z" transform="translate(1636.007 753.482)"/><path d="M979.479,634.854a91.392,91.392,0,0,0,75.1,39.222h0a91.513,91.513,0,0,0,91.514-91.514c0-.109-.007-.214-.007-.322s.007-.214.007-.322a91.516,91.516,0,0,0-91.562-91.467h0a91.4,91.4,0,0,0-75.085,39.263,68.245,68.245,0,0,1-55.977,29.2h0a68.241,68.241,0,0,1-56-29.143,91.4,91.4,0,0,0-75.129-39.182h0a91.513,91.513,0,0,0-91.463,91.562c0,.068,0,.139,0,.207s0,.136,0,.2a91.513,91.513,0,0,0,91.514,91.514h0A91.4,91.4,0,0,0,867.5,634.854a68.241,68.241,0,0,1,55.991-29.17h0A68.246,68.246,0,0,1,979.479,634.854Z" transform="translate(1273.553 753.576)"/><path d="M839.226,667.126c-.037.109-.064.221-.1.329s-.078.21-.112.319a91.513,91.513,0,1,0,174.068,56.56c.041-.125.071-.251.112-.376s.088-.241.129-.363a91.514,91.514,0,0,0-174.1-56.469Z" transform="translate(1592.976 1024.565)"/><path d="M943.607,756.561a91.387,91.387,0,0,0,59.31,60.51h0a91.513,91.513,0,0,0,115.314-58.754c.034-.105.058-.207.091-.312s.075-.2.105-.3a91.509,91.509,0,0,0-58.815-115.283h0a91.393,91.393,0,0,0-83.543,14.137,68.252,68.252,0,0,1-62.26,10.476h0a68.259,68.259,0,0,1-44.26-45.026,91.389,91.389,0,0,0-59.34-60.48h0a91.518,91.518,0,0,0-115.284,58.815c-.02.068-.037.135-.057.2s-.048.129-.068.193A91.513,91.513,0,0,0,753.554,736.05h0a91.4,91.4,0,0,0,83.55-14.094,68.239,68.239,0,0,1,62.266-10.442h0A68.253,68.253,0,0,1,943.607,756.561Z" transform="translate(1248.26 912.74)"/><path d="M800.241,743.919c-.068.095-.126.19-.193.285s-.139.176-.207.268A91.515,91.515,0,0,0,947.915,852.053c.074-.1.143-.214.22-.322s.159-.2.234-.3A91.514,91.514,0,0,0,800.241,743.919Z" transform="translate(1468.312 1269.164)"/><path d="M871.823,861.252a91.388,91.388,0,0,0,37.707,75.875h0a91.515,91.515,0,0,0,127.828-20.244c.064-.088.119-.18.183-.268s.132-.169.193-.254a91.514,91.514,0,0,0-20.311-127.818h0A91.4,91.4,0,0,0,933.6,776.172a68.244,68.244,0,0,1-62.449-9.276h0a68.245,68.245,0,0,1-28.177-56.5,91.4,91.4,0,0,0-37.748-75.854h0a91.516,91.516,0,0,0-127.817,20.311c-.041.058-.078.115-.119.173s-.082.105-.122.159a91.514,91.514,0,0,0,20.243,127.828h0a91.389,91.389,0,0,0,83.815,12.415,68.244,68.244,0,0,1,62.446,9.31h0A68.248,68.248,0,0,1,871.823,861.252Z" transform="translate(1175.079 1056.273)"/><path d="M739.421,804.882c-.092.068-.18.143-.271.207s-.186.125-.281.193A91.514,91.514,0,0,0,846.449,953.356c.108-.078.207-.163.312-.237s.214-.146.319-.22A91.514,91.514,0,1,0,739.421,804.882Z" transform="translate(1274.178 1463.298)"/><path d="M771.192,938.625a91.409,91.409,0,0,0,12.415,83.815h0a91.516,91.516,0,0,0,127.827,20.247c.088-.064.169-.132.258-.2s.176-.119.264-.183a91.514,91.514,0,0,0,20.179-127.838h0a91.4,91.4,0,0,0-75.9-37.67,68.237,68.237,0,0,1-56.526-28.119h0a68.236,68.236,0,0,1-9.34-62.439,91.412,91.412,0,0,0-12.46-83.811h0a91.517,91.517,0,0,0-127.838-20.179c-.058.04-.109.088-.166.129s-.112.075-.166.115a91.508,91.508,0,0,0-20.247,127.824h0a91.4,91.4,0,0,0,75.878,37.71,68.235,68.235,0,0,1,56.51,28.15h0A68.245,68.245,0,0,1,771.192,938.625Z" transform="translate(1061.132 1170.177)"/><path d="M662.716,844.044c-.109.034-.214.078-.322.112s-.217.061-.325.1a91.513,91.513,0,1,0,56.56,174.068c.122-.041.241-.088.366-.129s.248-.071.37-.112a91.512,91.512,0,1,0-56.648-174.037Z" transform="translate(1029.578 1587.962)"/><path d="M651.569,981.107a91.394,91.394,0,0,0-14.09,83.547h0a91.511,91.511,0,0,0,115.314,58.757c.1-.034.2-.075.305-.109s.2-.058.3-.092a91.513,91.513,0,0,0,58.7-115.344h0a91.406,91.406,0,0,0-60.54-59.279,68.235,68.235,0,0,1-45.071-44.21v0A68.241,68.241,0,0,1,716.9,842.1a91.4,91.4,0,0,0,14.049-83.557h0a91.513,91.513,0,0,0-115.345-58.7l-.2.071c-.064.02-.129.037-.193.058a91.515,91.515,0,0,0-58.757,115.314h0a91.4,91.4,0,0,0,60.51,59.31,68.244,68.244,0,0,1,45.05,44.237h0A68.253,68.253,0,0,1,651.569,981.107Z" transform="translate(917.573 1243.304)"/><path d="M577.592,857.527c-.112,0-.227.007-.339.01s-.227-.01-.339-.01a91.514,91.514,0,0,0,0,183.029c.129,0,.258-.01.387-.01s.258.01.39.01a91.514,91.514,0,0,0-.1-183.029Z" transform="translate(758.498 1630.994)"/><path d="M524.619,984.494a91.392,91.392,0,0,0-39.219,75.1h0a91.513,91.513,0,0,0,91.514,91.514c.109,0,.214-.007.322-.01s.214.01.322.01a91.511,91.511,0,0,0,91.463-91.562h0a91.382,91.382,0,0,0-39.26-75.085,68.245,68.245,0,0,1-29.2-55.977h0A68.243,68.243,0,0,1,629.7,872.482a91.4,91.4,0,0,0,39.182-75.125h0a91.516,91.516,0,0,0-91.562-91.467c-.071,0-.139.007-.207.007s-.136,0-.2,0A91.513,91.513,0,0,0,485.4,797.4h0a91.392,91.392,0,0,0,39.219,75.105A68.247,68.247,0,0,1,553.792,928.5h0A68.245,68.245,0,0,1,524.619,984.494Z" transform="translate(758.498 1268.538)"/><path d="M492.452,844.237c-.108-.034-.22-.061-.329-.095s-.21-.078-.319-.115a91.515,91.515,0,0,0-56.56,174.071c.125.041.251.071.373.112s.244.088.366.129a91.515,91.515,0,0,0,56.469-174.1Z" transform="translate(487.406 1587.962)"/><path d="M459.962,948.618a91.413,91.413,0,0,0-60.513,59.31v0a91.512,91.512,0,0,0,58.757,115.311c.1.034.207.061.312.095s.2.071.3.105A91.515,91.515,0,0,0,574.1,1064.627h0a91.4,91.4,0,0,0-14.138-83.543,68.244,68.244,0,0,1-10.476-62.259h0a68.245,68.245,0,0,1,45.027-44.26A91.4,91.4,0,0,0,655,815.224h0A91.514,91.514,0,0,0,596.177,699.94c-.064-.021-.132-.037-.2-.061s-.125-.044-.19-.068a91.517,91.517,0,0,0-115.314,58.757h0a91.391,91.391,0,0,0,14.094,83.55,68.25,68.25,0,0,1,10.442,62.266h0A68.249,68.249,0,0,1,459.962,948.618Z" transform="translate(542.286 1243.246)"/><path d="M415.558,805.255c-.092-.068-.186-.129-.281-.193s-.176-.139-.268-.207A91.513,91.513,0,1,0,307.428,952.926c.105.078.214.146.319.22s.2.159.308.237a91.513,91.513,0,1,0,107.5-148.128Z" transform="translate(242.904 1463.298)"/><path d="M406.731,876.834a91.41,91.41,0,0,0-75.878,37.71h0A91.512,91.512,0,0,0,351.1,1042.368c.088.065.18.122.268.186s.166.133.254.193a91.512,91.512,0,0,0,127.814-20.311h0a91.4,91.4,0,0,0,12.375-83.821,68.244,68.244,0,0,1,9.276-62.453h0a68.247,68.247,0,0,1,56.5-28.18,91.388,91.388,0,0,0,75.858-37.747h0a91.512,91.512,0,0,0-20.311-127.814c-.057-.041-.115-.078-.173-.119s-.1-.085-.163-.126a91.512,91.512,0,0,0-127.824,20.247h0a91.389,91.389,0,0,0-12.415,83.815,68.245,68.245,0,0,1-9.31,62.446h0A68.247,68.247,0,0,1,406.731,876.834Z" transform="translate(347.294 1170.065)"/><path d="M354.485,744.434c-.068-.095-.142-.18-.21-.271s-.125-.19-.19-.281A91.515,91.515,0,0,0,206.01,851.462c.078.105.159.2.237.308s.142.217.22.322A91.514,91.514,0,0,0,354.485,744.434Z" transform="translate(48.885 1269.165)"/><path d="M370.183,776.2a91.4,91.4,0,0,0-83.815,12.415h0a91.513,91.513,0,0,0-20.247,127.828c.064.088.132.169.2.258s.119.176.183.264a91.517,91.517,0,0,0,127.838,20.179h0A91.4,91.4,0,0,0,432,861.25a68.25,68.25,0,0,1,28.122-56.526h0a68.246,68.246,0,0,1,62.439-9.344,91.393,91.393,0,0,0,83.808-12.456l0,0a91.512,91.512,0,0,0,20.176-127.834c-.041-.058-.085-.109-.125-.166s-.074-.112-.115-.166a91.513,91.513,0,0,0-127.828-20.247h0a91.388,91.388,0,0,0-37.707,75.875,68.249,68.249,0,0,1-28.15,56.513h0A68.246,68.246,0,0,1,370.183,776.2Z" transform="translate(192.565 1056.119)"/><path d="M315.2,667.73c-.034-.109-.078-.214-.112-.322s-.064-.217-.1-.326a91.513,91.513,0,1,0-174.068,56.557c.037.125.088.244.129.369s.071.247.108.37A91.514,91.514,0,0,0,315.2,667.73Z" transform="translate(-75.66 1024.564)"/><path d="M353.894,656.582a91.4,91.4,0,0,0-83.55-14.094h0A91.513,91.513,0,0,0,211.59,757.8c.034.105.075.2.109.306s.058.207.092.308a91.513,91.513,0,0,0,115.344,58.7h0a91.393,91.393,0,0,0,59.276-60.544A68.254,68.254,0,0,1,430.623,711.5h0A68.257,68.257,0,0,1,492.9,721.91a91.4,91.4,0,0,0,83.557,14.049h0a91.512,91.512,0,0,0,58.693-115.345c-.02-.068-.047-.129-.068-.2s-.037-.129-.058-.193a91.512,91.512,0,0,0-115.314-58.757h0a91.4,91.4,0,0,0-59.31,60.51,68.232,68.232,0,0,1-44.237,45.047h0A68.242,68.242,0,0,1,353.894,656.582Z" transform="translate(93.245 912.56)"/><path d="M301.528,582.608c0-.115-.01-.227-.01-.343s.01-.224.01-.339a91.514,91.514,0,1,0-183.028,0c0,.132.01.261.01.39s-.01.258-.01.386a91.514,91.514,0,1,0,183.028-.095Z" transform="translate(-118.5 753.482)"/><path d="M359.419,529.634a91.4,91.4,0,0,0-75.105-39.222h0A91.516,91.516,0,0,0,192.8,581.926c0,.108.007.217.007.325s-.007.214-.007.322a91.513,91.513,0,0,0,91.562,91.463h0a91.4,91.4,0,0,0,75.085-39.26,68.247,68.247,0,0,1,55.977-29.2h0a68.244,68.244,0,0,1,56,29.146A91.412,91.412,0,0,0,546.557,673.9h0A91.515,91.515,0,0,0,638.02,582.34c0-.071,0-.139,0-.21s0-.136,0-.2a91.516,91.516,0,0,0-91.514-91.514h0A91.405,91.405,0,0,0,471.4,529.634a68.236,68.236,0,0,1-55.991,29.174h0A68.24,68.24,0,0,1,359.419,529.634Z" transform="translate(59.099 753.482)"/><path d="M315.009,497.463c.037-.109.064-.217.1-.325s.078-.214.112-.322a91.513,91.513,0,1,0-174.068-56.557c-.041.122-.071.247-.112.373s-.088.241-.129.366a91.513,91.513,0,1,0,174.1,56.465Z" transform="translate(-75.661 482.392)"/><path d="M386.408,464.972a91.394,91.394,0,0,0-59.31-60.51h0A91.515,91.515,0,0,0,211.784,463.22c-.034.1-.058.207-.091.308s-.075.2-.105.305A91.512,91.512,0,0,0,270.4,579.117h0a91.412,91.412,0,0,0,83.544-14.138A68.243,68.243,0,0,1,416.205,554.5h0a68.254,68.254,0,0,1,44.26,45.023,91.39,91.39,0,0,0,59.34,60.479h0a91.512,91.512,0,0,0,115.283-58.815c.02-.064.037-.132.058-.2s.047-.125.068-.19a91.512,91.512,0,0,0-58.754-115.314h0a91.4,91.4,0,0,0-83.55,14.09,68.251,68.251,0,0,1-62.266,10.446h0A68.259,68.259,0,0,1,386.408,464.972Z" transform="translate(93.274 537.272)"/><path d="M354.112,420.571c.068-.091.125-.19.193-.281s.139-.176.207-.271A91.514,91.514,0,0,0,206.437,312.438c-.075.108-.142.217-.22.322s-.159.2-.234.308a91.514,91.514,0,0,0,148.129,107.5Z" transform="translate(48.885 237.891)"/><path d="M432.028,411.745a91.393,91.393,0,0,0-37.707-75.878h0a91.513,91.513,0,0,0-127.828,20.247c-.064.088-.119.18-.183.268s-.132.166-.193.254a91.509,91.509,0,0,0,20.311,127.814h0A91.393,91.393,0,0,0,370.25,496.82,68.246,68.246,0,0,1,432.7,506.1h0a68.254,68.254,0,0,1,28.177,56.5,91.41,91.41,0,0,0,37.747,75.858h0a91.514,91.514,0,0,0,127.817-20.315c.041-.054.078-.115.119-.17s.081-.108.122-.163a91.516,91.516,0,0,0-20.243-127.828h0a91.41,91.41,0,0,0-83.815-12.415,68.253,68.253,0,0,1-62.446-9.307h0A68.248,68.248,0,0,1,432.028,411.745Z" transform="translate(192.62 342.28)"/><path d="M415.047,359.5c.091-.068.18-.139.271-.207s.187-.125.281-.193A91.513,91.513,0,0,0,308.018,211.024c-.109.078-.207.159-.312.237s-.214.142-.319.22A91.513,91.513,0,1,0,415.047,359.5Z" transform="translate(242.904 43.871)"/><path d="M491.857,375.2a91.414,91.414,0,0,0-12.415-83.818h0a91.515,91.515,0,0,0-127.828-20.244c-.088.064-.169.132-.258.2s-.176.119-.265.183a91.51,91.51,0,0,0-20.179,127.834h0a91.4,91.4,0,0,0,75.9,37.669,68.247,68.247,0,0,1,56.526,28.119v0a68.235,68.235,0,0,1,9.34,62.439,91.4,91.4,0,0,0,12.459,83.808h0a91.514,91.514,0,0,0,127.838,20.179c.058-.041.109-.085.166-.125s.112-.074.166-.115A91.513,91.513,0,0,0,633.554,503.5h0a91.394,91.394,0,0,0-75.878-37.707,68.243,68.243,0,0,1-56.509-28.15v0A68.237,68.237,0,0,1,491.857,375.2Z" transform="translate(347.369 187.552)"/><path d="M491.849,320.219c.109-.037.214-.078.322-.115s.217-.061.325-.095a91.515,91.515,0,1,0-56.56-174.071c-.122.041-.241.088-.366.132s-.248.068-.37.108a91.514,91.514,0,0,0,56.648,174.041Z" transform="translate(487.406 -80.674)"/><path d="M560.032,358.907a91.4,91.4,0,0,0,14.09-83.55h0A91.511,91.511,0,0,0,458.808,216.6c-.1.034-.2.071-.305.105s-.2.061-.305.092a91.516,91.516,0,0,0-58.7,115.345v0a91.394,91.394,0,0,0,60.54,59.276,68.239,68.239,0,0,1,45.071,44.213h0A68.241,68.241,0,0,1,494.7,497.905a91.4,91.4,0,0,0-14.049,83.557v0A91.514,91.514,0,0,0,596,640.159c.064-.02.129-.047.2-.068s.129-.037.193-.058a91.515,91.515,0,0,0,58.757-115.314h0a91.394,91.394,0,0,0-60.51-59.31,68.259,68.259,0,0,1-45.05-44.237h0A68.251,68.251,0,0,1,560.032,358.907Z" transform="translate(542.376 88.232)"/><path d="M576.962,306.541c.112,0,.227-.01.339-.01s.227.007.339.007a91.512,91.512,0,1,0,0-183.025c-.129,0-.258.007-.386.01s-.258-.01-.39-.01a91.514,91.514,0,0,0,.1,183.028Z" transform="translate(758.498 -123.513)"/></g></g></g></svg>