<svg xmlns="http://www.w3.org/2000/svg" xmlns:xlink="http://www.w3.org/1999/xlink" width="670" height="454.568" viewBox="0 0 670 454.568"><defs><style>.a,.e{fill:#fff;}.b,.d{fill:#4b42ad;}.c,.f,.h{fill:#333;}.c,.d,.j{font-size:18px;}.c,.d,.e,.f,.g,.h,.i,.j{font-family:Helvetica;letter-spacing:-0.019em;}.e{font-size:30px;}.f{font-size:22px;}.g,.j{fill:#acacac;}.g,.h{font-size:14px;}.i,.l{fill:#3cd17f;}.i{font-size:35px;}.j{opacity:0.6;}.k{fill:none;stroke:#dedede;}.m{filter:url(#e);}.n{filter:url(#c);}.o{filter:url(#a);}</style><filter id="a" x="253" y="169.568" width="417" height="220" filterUnits="userSpaceOnUse"><feOffset dy="3" input="SourceAlpha"/><feGaussianBlur stdDeviation="17.5" result="b"/><feFlood flood-opacity="0.149"/><feComposite operator="in" in2="b"/><feComposite in="SourceGraphic"/></filter><filter id="c" x="0" y="169.568" width="328" height="285" filterUnits="userSpaceOnUse"><feOffset dy="3" input="SourceAlpha"/><feGaussianBlur stdDeviation="17.5" result="d"/><feFlood flood-opacity="0.051"/><feComposite operator="in" in2="d"/><feComposite in="SourceGraphic"/></filter><filter id="e" x="132" y="0" width="405" height="245" filterUnits="userSpaceOnUse"><feOffset dy="3" input="SourceAlpha"/><feGaussianBlur stdDeviation="17.5" result="f"/><feFlood flood-opacity="0.149"/><feComposite operator="in" in2="f"/><feComposite in="SourceGraphic"/></filter></defs><g transform="translate(-165.5 -7608.5)"><g transform="translate(12892 -5245)"><g class="o" transform="matrix(1, 0, 0, 1, -12726.5, 12853.5)"><rect class="a" width="312" height="115" rx="10" transform="translate(305.5 219.07)"/></g><circle class="b" cx="37.5" cy="37.5" r="37.5" transform="translate(-12401 13092.568)"/><g transform="translate(-13418 4228.568)"><text class="c" transform="translate(1112 8911)"><tspan x="0" y="0">Lets make things </tspan><tspan x="0" y="24">A little bit tighter</tspan></text><text class="d" transform="translate(1112 8884)"><tspan x="0" y="0">Mark</tspan></text></g><text class="e" transform="translate(-12376 13109.568)"><tspan x="0" y="23">M</tspan></text><g class="n" transform="matrix(1, 0, 0, 1, -12726.5, 12853.5)"><path class="a" d="M10,0H213a10,10,0,0,1,10,10V170a10,10,0,0,1-10,10H10A10,10,0,0,1,0,170V10A10,10,0,0,1,10,0Z" transform="translate(52.5 219.07)"/></g><text class="f" transform="translate(-12649 13107.568)"><tspan x="0" y="0">Projects</tspan></text><text class="g" transform="translate(-12649 13227.568)"><tspan x="0" y="0">Since Last Month </tspan></text><text class="h" transform="translate(-12649 13207.568)"><tspan x="0" y="0">5.25%</tspan></text><text class="i" transform="translate(-12649 13130.568)"><tspan x="0" y="27">80</tspan></text></g><g transform="translate(-1115 6387)"><g class="m" transform="matrix(1, 0, 0, 1, 1280.5, 1221.5)"><path class="a" d="M10,0H290a10,10,0,0,1,10,10V130a10,10,0,0,1-10,10H10A10,10,0,0,1,0,130V10A10,10,0,0,1,10,0Z" transform="translate(184.5 49.5)"/></g><text class="f" transform="translate(1509 1306)"><tspan x="0" y="0">Notification</tspan></text><text class="c" transform="translate(1490 1363)"><tspan x="0" y="0">You have 5 new design requests </tspan><tspan x="0" y="23">From merchants.</tspan></text><text class="j" transform="translate(1704 1286)"><tspan x="0" y="14">Now</tspan></text><path class="k" d="M19468-6285.062h300" transform="translate(-18003 7611)"/><circle class="l" cx="4.5" cy="4.5" r="4.5" transform="translate(1490 1294)"/></g></g></svg>