<svg xmlns="http://www.w3.org/2000/svg" xmlns:xlink="http://www.w3.org/1999/xlink" width="920.75" height="836.224" viewBox="0 0 920.75 836.224"><defs><style>.a{fill:#fff;}.b{fill:#4b42ad;}.c,.f,.g{fill:#333;font-family:Helvetica;}.c{font-size:15px;letter-spacing:0.012em;}.d,.e{fill:#acacac;}.e{opacity:0.5;}.f{font-size:19px;}.f,.g{letter-spacing:-0.012em;}.g{font-size:16px;}.h{fill:#3cd17f;}.i{fill:none;stroke:#fff;stroke-linecap:round;stroke-linejoin:round;stroke-width:3px;}.j{filter:url(#i);}.k{filter:url(#g);}.l{filter:url(#e);}.m{filter:url(#c);}.n{filter:url(#a);}</style><filter id="a" x="171.75" y="186.494" width="577.248" height="188.527" filterUnits="userSpaceOnUse"><feOffset dy="3" input="SourceAlpha"/><feGaussianBlur stdDeviation="17.5" result="b"/><feFlood flood-opacity="0.051"/><feComposite operator="in" in2="b"/><feComposite in="SourceGraphic"/></filter><filter id="c" x="171.75" y="457.494" width="577.248" height="188.527" filterUnits="userSpaceOnUse"><feOffset dy="3" input="SourceAlpha"/><feGaussianBlur stdDeviation="17.5" result="d"/><feFlood flood-opacity="0.051"/><feComposite operator="in" in2="d"/><feComposite in="SourceGraphic"/></filter><filter id="e" x="235.146" y="314.922" width="545.091" height="199.634" filterUnits="userSpaceOnUse"><feOffset dy="3" input="SourceAlpha"/><feGaussianBlur stdDeviation="17.5" result="f"/><feFlood flood-opacity="0.149"/><feComposite operator="in" in2="f"/><feComposite in="SourceGraphic"/></filter><filter id="g" x="0" y="0" width="920" height="483" filterUnits="userSpaceOnUse"><feOffset dy="5" input="SourceAlpha"/><feGaussianBlur stdDeviation="12.5" result="h"/><feFlood flood-opacity="0.051"/><feComposite operator="in" in2="h"/><feComposite in="SourceGraphic"/></filter><filter id="i" x="0" y="352.809" width="920.75" height="483.415" filterUnits="userSpaceOnUse"><feOffset dy="5" input="SourceAlpha"/><feGaussianBlur stdDeviation="12.5" result="j"/><feFlood flood-opacity="0.051"/><feComposite operator="in" in2="j"/><feComposite in="SourceGraphic"/></filter></defs><g transform="translate(-23.5 -9598.5)"><g class="n" transform="matrix(1, 0, 0, 1, 23.5, 9598.5)"><path class="a" d="M10,0H472.248a0,0,0,0,1,0,0V83.527a0,0,0,0,1,0,0H10a10,10,0,0,1-10-10V10A10,10,0,0,1,10,0Z" transform="translate(224.25 235.99)"/></g><path class="b" d="M10,0H96a0,0,0,0,1,0,0V95a0,0,0,0,1,0,0H10A10,10,0,0,1,0,85V10A10,10,0,0,1,10,0Z" transform="translate(215 9963)"/><g class="m" transform="matrix(1, 0, 0, 1, 23.5, 9598.5)"><path class="a" d="M10,0H472.248a0,0,0,0,1,0,0V83.527a0,0,0,0,1,0,0H10a10,10,0,0,1-10-10V10A10,10,0,0,1,10,0Z" transform="translate(224.25 506.99)"/></g><text class="c" transform="translate(346.059 10142.463)"><tspan x="0" y="0" xml:space="preserve">New Message from BEN SMITH  </tspan><tspan class="d"><tspan x="0" y="18">5 minutes ago</tspan></tspan></text><path class="e" d="M10,0H85a0,0,0,0,1,0,0V84a0,0,0,0,1,0,0H10A10,10,0,0,1,0,74V10A10,10,0,0,1,10,0Z" transform="translate(247 10105)"/><g class="l" transform="matrix(1, 0, 0, 1, 23.5, 9598.5)"><path class="a" d="M0,0H430.091a10,10,0,0,1,10,10V84.633a10,10,0,0,1-10,10H0a0,0,0,0,1,0,0V0A0,0,0,0,1,0,0Z" transform="translate(287.65 364.42)"/></g><text class="f" transform="translate(349.734 10005.891)"><tspan x="0" y="0">New Design request from SMITHS LTD</tspan><tspan class="d"><tspan x="0" y="23">15 minutes ago</tspan></tspan></text><text class="g" transform="translate(347 9872)"><tspan x="0" y="0" xml:space="preserve">NDA submitted by BANKS &amp; CO  </tspan><tspan class="d"><tspan x="0" y="19">5 minutes ago</tspan></tspan></text><path class="e" d="M10,0H85a0,0,0,0,1,0,0V84a0,0,0,0,1,0,0H10A10,10,0,0,1,0,74V10A10,10,0,0,1,10,0Z" transform="translate(247 9834)"/><g class="k" transform="matrix(1, 0, 0, 1, 23.5, 9598.5)"><rect class="a" width="545" height="108" transform="translate(187.5 182.5)"/></g><g class="j" transform="matrix(1, 0, 0, 1, 23.5, 9598.5)"><path class="a" d="M0,0H545.75V108.415H0Z" transform="translate(187.5 535.31)"/></g><circle class="h" cx="4" cy="4" r="4" transform="translate(334 9996)"/><g transform="translate(277.152 9859.096)"><path class="i" d="M21.872,3H9.174A3.174,3.174,0,0,0,6,6.174v25.4a3.174,3.174,0,0,0,3.174,3.174H28.221A3.174,3.174,0,0,0,31.4,31.57V12.523Z" transform="translate(-6 -3)"/><path class="i" d="M21,3v9.523h9.523" transform="translate(-5.128 -3)"/><path class="i" d="M24.7,19.5H12" transform="translate(-5.651 -2.041)"/><path class="i" d="M24.7,25.5H12" transform="translate(-5.651 -1.692)"/><path class="i" d="M15.174,13.5H12" transform="translate(-5.651 -2.39)"/></g><path class="a" d="M22.662,9.957a4.374,4.374,0,1,1-4.374,4.374,4.373,4.373,0,0,1,4.374-4.374m0,18.745c6.186,0,12.7,3.041,12.7,4.374v2.291H9.957V33.076c0-1.333,6.519-4.374,12.7-4.374m0-22.7a8.331,8.331,0,1,0,8.331,8.331A8.329,8.329,0,0,0,22.662,6Zm0,18.745C17.1,24.745,6,27.536,6,33.076v6.248H39.324V33.076C39.324,27.536,28.223,24.745,22.662,24.745Z" transform="translate(266.559 10123.214)"/><path class="a" d="M34.417,4.5H4.792A3.28,3.28,0,0,0,1.5,7.792V30.834a3.28,3.28,0,0,0,3.292,3.292H34.417a3.28,3.28,0,0,0,3.292-3.292V7.792A3.28,3.28,0,0,0,34.417,4.5Zm0,26.367H4.792V7.759H34.417Zm-18.1-11.554H13.021L19.6,12.729l6.583,6.583H22.9V25.9H16.313Z" transform="translate(243.494 9990.574)"/></g></svg>