<svg xmlns="http://www.w3.org/2000/svg" width="885" height="883" viewBox="0 0 885 883"><defs><style>.a{fill:#4b42ad;}</style></defs><path class="a" d="M1004,545.247H711.409l286.952-57.035-5.778-28.938L704.238,516.586,975.594,403.665,964.21,376.433,694.166,488.808,937,325.959,920.5,301.47,679.62,463.011,884.85,258.244,863.939,237.38,657.046,443.806,819.531,201.029l-24.594-16.386L631.664,428.6,743.513,157.308l-27.349-11.225L604.855,416.063l56.3-286.475-29.02-5.677L576.287,408.083V118.5H546.713V410.43l-57.164-286.3-29,5.765,57.442,287.694L404.811,146.842,377.517,158.2l112.63,269.434L326.929,185.347l-24.544,16.46,161.907,240.34L259.061,237.38,238.15,258.244,445.043,464.67,201.715,302.552,185.293,327.09,429.8,489.995,157.9,378.4l-11.25,27.288L417.237,516.743,130.113,460.573l-5.69,28.955,284.816,55.719H119v29.506H411.591L124.639,631.788l5.778,28.938,288.345-57.312L147.406,716.334l11.384,27.233L428.835,631.192,186,794.041l16.5,24.489L443.38,656.989,238.15,861.756l20.911,20.864L465.954,676.194,303.469,918.971l24.594,16.386L491.336,691.4,379.487,962.692l27.349,11.225,111.309-269.98-56.3,286.475,29.02,5.677,55.845-284.172V1001.5h29.573V709.57l57.164,286.3,29-5.765L605.012,702.416,718.189,973.158,745.483,961.8,632.853,692.366,796.071,934.653l24.544-16.46L658.709,677.853,863.939,882.62l20.911-20.864L677.957,655.33,921.284,817.448l16.423-24.538L693.2,630.005,965.1,741.6l11.25-27.288L705.763,603.256l287.124,56.171,5.69-28.955L713.761,574.753H1004Z" transform="translate(-119 -118.5)"/></svg>