<svg xmlns="http://www.w3.org/2000/svg" width="52.158" height="52.158" viewBox="0 0 52.158 52.158"><defs><style>.a{fill:#333;}</style></defs><g transform="translate(-119 -118.5)"><path class="a" d="M478.86,144.579l2.375-23.451a2.388,2.388,0,0,0-2.375-2.628h0a2.387,2.387,0,0,0-2.375,2.628Z" transform="translate(-333.781)"/><path class="a" d="M478.86,512l-2.375,23.451a2.387,2.387,0,0,0,2.375,2.628h0a2.388,2.388,0,0,0,2.375-2.628Z" transform="translate(-333.781 -367.421)"/><path class="a" d="M512.5,478.36l23.451,2.375a2.388,2.388,0,0,0,2.628-2.375h0a2.388,2.388,0,0,0-2.628-2.375Z" transform="translate(-367.421 -333.781)"/><path class="a" d="M145.079,478.36l-23.451-2.375A2.388,2.388,0,0,0,119,478.36h0a2.388,2.388,0,0,0,2.628,2.375Z" transform="translate(0 -333.781)"/><path class="a" d="M512.5,242.342l18.262-14.9a2.387,2.387,0,0,0,.179-3.538h0a2.387,2.387,0,0,0-3.538.179Z" transform="translate(-367.421 -97.763)"/><path class="a" d="M242.842,512,224.58,526.9a2.388,2.388,0,0,0-.179,3.538h0a2.388,2.388,0,0,0,3.538-.179Z" transform="translate(-97.763 -367.421)"/><path class="a" d="M512.5,512l14.9,18.262a2.387,2.387,0,0,0,3.538.179h0a2.387,2.387,0,0,0-.179-3.538Z" transform="translate(-367.421 -367.421)"/><path class="a" d="M242.842,242.342l-14.9-18.262a2.388,2.388,0,0,0-3.538-.179h0a2.387,2.387,0,0,0,.179,3.538Z" transform="translate(-97.763 -97.763)"/></g></svg>