<svg xmlns="http://www.w3.org/2000/svg" width="50" height="51.605" viewBox="0 0 50 51.605"><defs><style>.a{fill:#fff;}</style></defs><g transform="translate(180.345 -118.59) rotate(90)"><g transform="translate(157.798 148.328)"><path class="a" d="M844.807,417.412a10.586,10.586,0,0,0,.309-1.44c.077-.485.188-.966.236-1.455a22.966,22.966,0,0,0,.131-2.943c-.019-.491-.008-.984-.052-1.473l-.182-1.463c-.035-.243-.051-.49-.1-.73l-.164-.719-.329-1.437,3.079-.87.379,1.637.184.82c.057.274.078.555.118.833l.206,1.671c.05.559.042,1.122.061,1.683a26.189,26.189,0,0,1-.153,3.363c-.056.558-.178,1.108-.267,1.662a13.024,13.024,0,0,1-.353,1.645Z" transform="translate(-836.303 -404.882)"/><path class="a" d="M724.978,583.4l-.382,1.378c-.16.448-.339.891-.508,1.337l-.256.668-.318.641-.639,1.279-.757,1.214c-.128.2-.247.408-.383.6l-.435.568c-.293.376-.572.763-.876,1.13l-.974,1.047-2.295-2.229.834-.892c.259-.314.5-.647.747-.967l.374-.483c.116-.167.216-.346.325-.518l.65-1.036.543-1.1.274-.546.216-.572.436-1.141.324-1.178Z" transform="translate(-717.155 -570.962)"/></g><g transform="translate(139.01 171.102)"><path class="a" d="M606.9,758.545l1.4-.471.7-.236c.228-.09.449-.2.673-.3l1.342-.611c.436-.225.853-.488,1.28-.73l.637-.371c.215-.12.4-.281.606-.42l1.195-.864c.386-.3.742-.645,1.114-.965l.552-.489c.185-.162.34-.355.511-.531l2.294,2.23c-.2.2-.375.418-.585.6l-.629.56c-.424.368-.833.755-1.274,1.1l-1.364.989c-.232.158-.449.339-.693.478l-.727.426c-.487.278-.966.575-1.464.832l-1.532.7c-.257.113-.51.236-.77.339l-.795.272-1.593.534Z" transform="translate(-595.334 -752.557)"/><path class="a" d="M441.633,790.319l-1.394.319-.7.16c-.234.042-.472.062-.708.094l-1.419.177c-.475.035-.953.028-1.429.045l-.715.017c-.238.011-.475-.028-.713-.04l-1.426-.108c-.473-.054-.94-.157-1.41-.233l-.7-.123c-.235-.04-.461-.121-.692-.179l.789-3.1c.2.049.389.123.59.155l.6.1c.4.063.8.156,1.2.2l1.216.09a5.76,5.76,0,0,0,.608.036l.61-.017c.406-.016.813-.006,1.219-.036l1.211-.154c.2-.027.405-.042.606-.078l.6-.14,1.194-.269Z" transform="translate(-430.326 -784.967)"/></g><g transform="translate(123.291 160.436)"><path class="a" d="M240.63,759.56l1.08,1c.382.308.778.6,1.167.9l.585.448.624.392,1.252.778,1.319.658c.221.107.438.224.662.323l.688.264c.46.172.915.362,1.38.519l1.421.394-.789,3.1-1.621-.453c-.531-.179-1.05-.392-1.575-.59l-.784-.3c-.257-.113-.5-.244-.757-.366l-1.5-.753-1.43-.886-.71-.45-.67-.508c-.444-.342-.894-.678-1.329-1.03l-1.234-1.145Z" transform="translate(-235.258 -748.435)"/><path class="a" d="M196.157,600.31a10.194,10.194,0,0,1-.986-1.034c-.309-.362-.646-.7-.934-1.082a22.293,22.293,0,0,1-1.6-2.366c-.233-.415-.494-.817-.706-1.243l-.592-1.3c-.095-.219-.207-.43-.287-.655l-.228-.677-.458-1.355,3.079-.87.4,1.158.193.581c.067.192.166.371.247.558l.5,1.113c.18.364.407.7.6,1.059a19.055,19.055,0,0,0,1.364,2.019c.244.325.536.611.8.921a7.933,7.933,0,0,0,.841.883Z" transform="translate(-190.366 -589.727)"/></g><g transform="translate(118.59 140.063)"><path class="a" d="M122.482,416.65a10.663,10.663,0,0,0-.309,1.44c-.077.485-.187.966-.236,1.455a23.009,23.009,0,0,0-.131,2.943c.019.491.008.984.051,1.473l.182,1.463c.035.243.051.49.1.73l.164.718.329,1.437-3.079.87-.379-1.637-.184-.82c-.057-.274-.079-.555-.119-.833l-.206-1.671c-.05-.559-.042-1.122-.061-1.683a26.173,26.173,0,0,1,.152-3.363c.057-.558.178-1.108.267-1.662a13.016,13.016,0,0,1,.353-1.645Z" transform="translate(-118.59 -406.881)"/><path class="a" d="M188.426,288.562l.382-1.378c.16-.448.339-.891.508-1.337l.256-.667.317-.641.639-1.28.757-1.213c.128-.2.248-.408.383-.6l.435-.567c.293-.376.572-.763.876-1.13l.975-1.047,2.295,2.229-.834.892c-.259.314-.495.647-.746.967l-.374.483c-.115.167-.216.346-.325.518l-.65,1.036-.544,1.1-.274.546-.216.572-.437,1.141-.323,1.178Z" transform="translate(-183.851 -278.699)"/></g><g transform="translate(125.908 130.523)"><path class="a" d="M242.615,136.132l-1.4.471-.7.237c-.229.089-.449.2-.674.3l-1.342.611c-.436.225-.853.488-1.28.73l-.637.371c-.215.12-.4.281-.606.42l-1.195.865c-.386.3-.742.645-1.114.966l-.552.488c-.185.162-.34.355-.511.531l-2.295-2.229c.2-.2.375-.418.585-.6l.629-.56c.424-.368.833-.754,1.274-1.1l1.364-.989c.231-.159.449-.34.693-.478l.726-.426c.488-.278.966-.575,1.465-.832l1.531-.7c.256-.113.509-.237.77-.339l.8-.272,1.593-.534Z" transform="translate(-230.314 -133.055)"/><path class="a" d="M422.054,178.122l1.395-.318.7-.16c.234-.042.472-.062.708-.094l1.419-.177c.475-.035.953-.029,1.429-.045l.714-.017c.239-.011.476.028.714.04l1.426.108c.473.054.94.158,1.41.233l.7.123c.235.04.461.121.692.179l-.789,3.1c-.2-.05-.389-.123-.59-.155l-.6-.1c-.4-.063-.8-.155-1.2-.2l-1.216-.09a5.834,5.834,0,0,0-.608-.036l-.609.018c-.406.016-.814.006-1.219.036l-1.211.154c-.2.027-.4.042-.605.078l-.6.14-1.194.269Z" transform="translate(-409.494 -174.409)"/></g><g transform="translate(149.944 130.345)"><path class="a" d="M607.424,139.129l-1.08-1c-.382-.308-.778-.6-1.167-.9l-.585-.447-.624-.393-1.252-.779-1.32-.658c-.221-.107-.437-.225-.662-.323l-.688-.265c-.46-.172-.915-.362-1.38-.519l-1.421-.394.788-3.1,1.622.452c.531.179,1.05.392,1.575.59l.784.3c.256.113.5.244.756.366l1.5.753,1.43.886.71.45.67.509c.444.342.894.678,1.33,1.03l1.234,1.144Z" transform="translate(-597.246 -130.345)"/><path class="a" d="M714.363,272.7a10.232,10.232,0,0,1,.985,1.034c.31.362.646.7.934,1.082a22.245,22.245,0,0,1,1.6,2.366c.233.415.494.816.705,1.243l.592,1.3c.094.218.207.43.286.654l.229.678.458,1.355-3.079.87-.4-1.158-.193-.581c-.067-.192-.167-.371-.247-.558l-.5-1.113c-.18-.364-.406-.7-.6-1.059a19.113,19.113,0,0,0-1.364-2.019c-.244-.325-.536-.612-.8-.922a7.9,7.9,0,0,0-.841-.883Z" transform="translate(-704.605 -263.379)"/></g></g></svg>