<svg xmlns="http://www.w3.org/2000/svg" width="51.575" height="51.575" viewBox="0 0 51.575 51.575"><defs><style>.a{fill:#fff;}</style></defs><g transform="translate(-119 -120.283)"><g transform="translate(136.493 137.774)"><path class="a" d="M394.229,402.57a8.3,8.3,0,1,1,8.294-8.3A8.3,8.3,0,0,1,394.229,402.57Zm0-15.347a7.051,7.051,0,1,0,7.055,7.051,7.061,7.061,0,0,0-7.055-7.051Z" transform="translate(-385.935 -385.978)"/></g><g transform="translate(119 120.283)"><g transform="translate(0 0)"><path class="a" d="M144.788,171.858a25.788,25.788,0,1,1,25.788-25.788A25.817,25.817,0,0,1,144.788,171.858Zm0-50.331a24.543,24.543,0,1,0,24.55,24.544,24.574,24.574,0,0,0-24.55-24.544Z" transform="translate(-119 -120.283)"/></g></g><g transform="translate(127.656 128.94)"><g transform="translate(0 0)"><path class="a" d="M268.218,286.044a17.132,17.132,0,1,1,17.131-17.132A17.151,17.151,0,0,1,268.218,286.044Zm0-33.018a15.886,15.886,0,1,0,15.892,15.886,15.908,15.908,0,0,0-15.892-15.886Z" transform="translate(-251.087 -251.781)"/></g></g><g transform="translate(123.41 124.693)"><g transform="translate(0 0)"><path class="a" d="M207.667,230.03a21.377,21.377,0,1,1,21.377-21.377A21.4,21.4,0,0,1,207.667,230.03Zm0-41.51A20.132,20.132,0,1,0,227.8,208.653,20.158,20.158,0,0,0,207.667,188.521Z" transform="translate(-186.289 -187.276)"/></g></g><g transform="translate(131.979 133.262)"><g transform="translate(0 0)"><path class="a" d="M329.856,343.05a12.809,12.809,0,1,1,12.809-12.809A12.824,12.824,0,0,1,329.856,343.05Zm0-24.375a11.565,11.565,0,1,0,11.569,11.565,11.58,11.58,0,0,0-11.569-11.565Z" transform="translate(-317.047 -317.431)"/></g></g></g></svg>