<svg xmlns="http://www.w3.org/2000/svg" width="52.045" height="52.046" viewBox="0 0 52.045 52.046"><defs><style>.a{fill:#333;}</style></defs><g transform="translate(-119.619 -119.108)"><path class="a" d="M398.518,120.255a26.175,26.175,0,0,0-15.33,0l-.965.3h17.259Z" transform="translate(-245.211)"/><path class="a" d="M317.9,166.333c-.708-.472-1.434-.905-2.159-1.291l-.033-.018H291.28l-.033.018c-.724.385-1.45.819-2.159,1.291l-.417.277h29.652Z" transform="translate(-157.854 -42.875)"/><path class="a" d="M268.792,214.412c-.439-.437-.908-.87-1.395-1.288l-.043-.037h-33.78l-.043.037c-.487.419-.957.852-1.395,1.289l-.26.259h37.176Z" transform="translate(-104.823 -87.754)"/><path class="a" d="M234.023,262.492c-.319-.439-.655-.872-1-1.289l-.045-.055H192.922l-.046.055c-.345.416-.682.85-1,1.289l-.175.241h42.5Z" transform="translate(-67.308 -132.633)"/><path class="a" d="M208.85,310.564c-.232-.445-.475-.878-.722-1.289l-.044-.072H163.5l-.045.072c-.244.4-.487.835-.725,1.289l-.116.222h46.35Z" transform="translate(-40.149 -177.504)"/><path class="a" d="M190.942,358.628c-.155-.431-.326-.865-.506-1.289l-.04-.092H142.543l-.039.092c-.178.422-.349.855-.506,1.289l-.072.2h49.091Z" transform="translate(-20.83 -222.366)"/><path class="a" d="M179.211,406.682c-.091-.414-.2-.837-.321-1.29l-.031-.112h-50.1l-.031.112c-.122.445-.23.879-.321,1.29l-.04.184h50.888Z" transform="translate(-8.165 -267.218)"/><path class="a" d="M172.994,454.766c-.036-.4-.086-.818-.153-1.289l-.019-.13H121.354l-.019.13c-.068.471-.118.893-.153,1.289l-.015.165h51.841Z" transform="translate(-1.445 -312.101)"/><path class="a" d="M384.146,883.726a26.182,26.182,0,0,0,15.183,0l.975-.3H383.171Z" transform="translate(-246.096 -713.697)"/><path class="a" d="M289.59,835.656c.712.472,1.44.906,2.165,1.291l.034.017h24.351l.034-.017a25.082,25.082,0,0,0,2.165-1.291l.416-.277H289.171Z" transform="translate(-158.322 -668.828)"/><path class="a" d="M232.475,787.6c.436.434.907.867,1.4,1.289l.042.036h33.727l.043-.036c.494-.422.964-.856,1.4-1.289l.26-.259H232.215Z" transform="translate(-105.138 -623.974)"/><path class="a" d="M192.115,739.512c.311.428.648.861,1,1.289l.045.055h40.019l.045-.055c.355-.427.692-.861,1-1.289l.175-.241H191.94Z" transform="translate(-67.531 -579.087)"/><path class="a" d="M162.917,691.469c.238.454.482.888.726,1.289l.044.072h44.555l.044-.072c.244-.4.488-.836.725-1.289l.116-.222H162.8Z" transform="translate(-40.322 -534.244)"/><path class="a" d="M142.136,643.367c.16.442.331.876.509,1.289l.04.091h47.832l.041-.091c.178-.414.349-.848.509-1.289l.073-.2H142.064Z" transform="translate(-20.958 -489.346)"/><path class="a" d="M129,597.682c.084.367.181.748.286,1.131l.03.111h50.092l.031-.111c.1-.383.2-.764.285-1.131l.043-.186H128.956Z" transform="translate(-8.719 -446.702)"/><path class="a" d="M121.4,549.612c.042.421.1.856.163,1.291l.02.129H173l.02-.129c.067-.438.122-.873.163-1.291l.016-.167H121.385Z" transform="translate(-1.649 -401.834)"/><path class="a" d="M171.658,501.56l0-.148H119.628l0,.148c0,.184-.006.368-.006.554,0,.245,0,.489.01.735l0,.148h52.018l0-.147c.006-.246.01-.49.01-.735C171.664,501.928,171.662,501.744,171.658,501.56Z" transform="translate(0 -356.982)"/></g></svg>