<svg xmlns="http://www.w3.org/2000/svg" width="51.587" height="51.658" viewBox="0 0 51.587 51.658"><defs><style>.a{fill:#fff;}</style></defs><g transform="translate(-120.042 -119)"><rect class="a" width="3.144" height="8.675" transform="translate(144.288 119)"/><rect class="a" width="8.675" height="3.144" transform="translate(149.184 127.934) rotate(-73.636)"/><rect class="a" width="8.675" height="3.144" transform="translate(153.808 129.561) rotate(-57.273)"/><rect class="a" width="8.675" height="3.144" transform="matrix(0.756, -0.655, 0.655, 0.756, 157.787, 132.426)"/><rect class="a" width="8.675" height="3.144" transform="translate(160.797 136.295) rotate(-24.545)"/><rect class="a" width="8.675" height="3.144" transform="translate(162.595 140.856) rotate(-8.182)"/><rect class="a" width="3.144" height="8.675" transform="translate(162.588 148.851) rotate(-81.818)"/><rect class="a" width="3.144" height="8.675" transform="translate(160.776 153.408) rotate(-65.455)"/><rect class="a" width="3.144" height="8.675" transform="matrix(0.655, -0.756, 0.756, 0.655, 157.754, 157.27)"/><rect class="a" width="3.144" height="8.675" transform="translate(153.767 160.124) rotate(-32.727)"/><rect class="a" width="3.144" height="8.675" transform="translate(149.136 161.739) rotate(-16.364)"/><rect class="a" width="3.144" height="8.675" transform="translate(144.239 161.984)"/><rect class="a" width="8.675" height="3.144" transform="translate(137.026 169.162) rotate(-73.636)"/><rect class="a" width="8.675" height="3.144" transform="translate(130.528 165.695) rotate(-57.273)"/><rect class="a" width="8.675" height="3.144" transform="matrix(0.756, -0.655, 0.655, 0.756, 125.269, 160.537)"/><rect class="a" width="8.675" height="3.144" transform="translate(121.677 154.106) rotate(-24.545)"/><rect class="a" width="8.675" height="3.144" transform="translate(120.042 146.924) rotate(-8.182)"/><rect class="a" width="3.144" height="8.675" transform="translate(120.049 142.685) rotate(-81.818)"/><rect class="a" width="3.144" height="8.675" transform="translate(121.698 135.507) rotate(-65.455)"/><rect class="a" width="3.144" height="8.675" transform="matrix(0.655, -0.756, 0.756, 0.655, 125.302, 129.084)"/><rect class="a" width="3.144" height="8.675" transform="translate(130.57 123.937) rotate(-32.727)"/><rect class="a" width="3.144" height="8.675" transform="translate(137.074 120.482) rotate(-16.364)"/><rect class="a" width="3.144" height="8.675" transform="translate(144.288 119)"/></g></svg>