<svg xmlns="http://www.w3.org/2000/svg" xmlns:xlink="http://www.w3.org/1999/xlink" width="628" height="149" viewBox="0 0 628 149"><defs><style>.a{fill:#3cd17f;}.b,.d{fill:#fff;}.c{fill:none;stroke:#fff;}.d{font-size:12px;font-family:Helvetica;letter-spacing:-0.019em;}.e{filter:url(#a);}</style><filter id="a" x="0" y="0" width="628" height="149" filterUnits="userSpaceOnUse"><feOffset dy="5" input="SourceAlpha"/><feGaussianBlur stdDeviation="17.5" result="b"/><feFlood flood-opacity="0.102"/><feComposite operator="in" in2="b"/><feComposite in="SourceGraphic"/></filter></defs><g transform="translate(52.5 47.5)"><g class="e" transform="matrix(1, 0, 0, 1, -52.5, -47.5)"><path class="a" d="M0,0H523V44H0Z" transform="translate(52.5 47.5)"/></g><path class="b" d="M15.422,10.067c-2.043,3.019-3.356,4.908-3.356,6.742a3.356,3.356,0,0,0,6.711,0C18.778,14.974,17.465,13.086,15.422,10.067Zm-.012,2.148a2.722,2.722,0,0,1,.431,1.393c0,1.639-1.678,1.908-1.678.91,0-.685.834-1.7,1.247-2.3Zm-6.7,4.458V2.517H5.356c-1.346,0-1.679,1.532-1.679,2.517H2V0H18.777V5.033H17.117c0-.985-.311-2.517-1.695-2.517H12.067v9.6a9.044,9.044,0,0,0-1.678,4.689,4.962,4.962,0,0,0,1.283,3.325H6.195V18.456h.839A1.7,1.7,0,0,0,8.711,16.672Z" transform="translate(56.723 11.745)"/><path class="b" d="M4.195,7.614A1.258,1.258,0,1,1,5.453,8.872,1.259,1.259,0,0,1,4.195,7.614Zm7.55.419L9.631,11.389,7.55,9.745l-3.356,5H15.939Zm6.711-3.356V16.422H1.678V4.678ZM20.134,3H0V18.1H20.134Z" transform="translate(101.507 12.1)"/><path class="b" d="M20.134,11.9V8.232c-1.8-.643-2.287-.673-2.539-1.283s.07-.981.888-2.7L15.888,1.651c-1.7.808-2.087,1.144-2.7.888S12.539,1.794,11.9,0H8.232c-.641,1.8-.671,2.286-1.283,2.539-.631.263-1.009-.084-2.7-.888L1.651,4.246c.82,1.724,1.143,2.091.888,2.7S1.8,7.591,0,8.232V11.9c1.794.638,2.286.671,2.539,1.282s-.068.979-.888,2.7l2.595,2.595c1.677-.8,2.072-1.152,2.7-.888.611.253.641.738,1.283,2.539H11.9c.636-1.788.67-2.284,1.289-2.543s.995.083,2.7.891l2.595-2.595c-.818-1.72-1.143-2.091-.888-2.7S18.333,12.543,20.134,11.9Zm-4.09.641a3.325,3.325,0,0,0,.409,3l-.909.909a3.31,3.31,0,0,0-3-.411,3.332,3.332,0,0,0-1.836,2.414H9.424a3.325,3.325,0,0,0-1.831-2.412,3.329,3.329,0,0,0-3,.409l-.909-.909a3.318,3.318,0,0,0,.409-3,3.329,3.329,0,0,0-2.413-1.83V9.424A3.324,3.324,0,0,0,4.09,7.592a3.324,3.324,0,0,0-.409-3L4.59,3.68a3.32,3.32,0,0,0,3,.409A3.324,3.324,0,0,0,9.424,1.678h1.287A3.327,3.327,0,0,0,12.543,4.09a3.33,3.33,0,0,0,3-.409l.909.909a3.329,3.329,0,0,0-.409,3,3.326,3.326,0,0,0,2.412,1.831v1.287a3.319,3.319,0,0,0-2.414,1.831ZM10.067,7.55A2.517,2.517,0,1,1,7.55,10.067,2.52,2.52,0,0,1,10.067,7.55Zm0-1.678a4.195,4.195,0,1,0,4.195,4.195A4.194,4.194,0,0,0,10.067,5.872Z" transform="translate(12.584 11.745)"/><path class="b" d="M17.617,11.745V2.517H8.389V0H2.517V2.517H0V4.195H2.517V17.617H15.939v2.517h1.678V17.617h2.517V11.745ZM8.389,4.195h7.55v7.55H8.389ZM18.456,15.939H4.195V1.678H6.711v.839H5.033v.839H6.711V5.033H5.033v.839H6.711V7.55H5.033v.839H6.711v1.678H5.033v.839H6.711v1.678H5.033v.839H6.711V15.1H7.55V13.422H9.228V15.1h.839V13.422h1.678V15.1h.839V13.422h1.678V15.1H15.1V13.422h1.678V15.1h.839V13.422h.839Z" transform="translate(147.647 11.745)"/><path class="b" d="M15.1,12.283v5.495H1.678V7.711H7.335L8.994,6.033H0V19.456H16.778v-8.87Zm1.236-8.9L17.768,4.81,9.982,12.678l-1.871.4.43-1.82,7.8-7.876ZM16.329,1,7.014,10.409,5.872,15.261l4.948-1.047L20.135,4.8,16.329,1Z" transform="translate(489.92 10.745)"/><line class="c" y2="26.845" transform="translate(45.72 8.389)"/><line class="c" y2="26.845" transform="translate(88.504 8.389)"/><line class="c" y2="26.845" transform="translate(134.644 8.389)"/><line class="c" y2="26.845" transform="translate(476.917 8.389)"/><line class="c" y2="26.845" transform="translate(180.784 8.5)"/><text class="d" transform="translate(195 15)"><tspan x="0.227" y="9">Home Page</tspan></text><path class="b" d="M2.5,0,5,4H0Z" transform="translate(460 24) rotate(180)"/></g></svg>